<svg width="54" height="59" viewBox="0 0 54 59" fill="none" xmlns="http://www.w3.org/2000/svg">
	<g clip-path="url(#clip0_13_379)">
		<path d="M15 0.829956H19.47C21.97 0.829956 24 2.85996 24 5.35996V20.95C21 19.22 14.94 15.72 15 10.72C15 5.28996 15.02 8.79996 15 0.829956Z" fill="#310B0E" />
		<path d="M0 0.829956H9V20.96L24 29.83V54.83H15V34.83L0 26.16V0.829956Z" fill="#310B0E" />
		<path d="M0 36.51L9 41.84V54.83H0V36.51Z" fill="#310B0E" />
		<path d="M49.47 54.8299H45V26.0499C48 27.7799 54.06 31.2799 54 36.2799C54 40.6099 53.99 44.7499 54 50.2999C54 52.7999 51.98 54.8299 49.48 54.8299H49.47Z" fill="#310B0E" />
		<path d="M39 0.829956H30V54.83H39V0.829956Z" fill="#310B0E" />
		<path d="M45 0.829956H49.45C51.96 0.829956 54 2.86996 54 5.37996V21.24L45 16.04V0.829956Z" fill="#310B0E" />
	</g>
	<defs>
		<clipPath id="clip0_13_379">
			<rect width="54" height="57.34" fill="white" transform="translate(0 0.829956)" />
		</clipPath>
	</defs>
</svg>
