<?xml version="1.0" encoding="UTF-8"?>
<svg id="Layer_1" data-name="Layer 1" xmlns="http://www.w3.org/2000/svg" viewBox="0 0 152.35 164.53">
	<defs>
		<style>
			.cls-1 {
			fill: #ffffff;
			font-family: Montserrat-Regular, 'Montserrat Regular';
			font-size: 10.98px;
			}
			
			.cls-2 {
			fill: #ffffff;
			stroke: #ffffff;
			stroke-miterlimit: 10;
			}
		</style>
	</defs>
	<g>
		<path class="cls-2" d="M56.89,49.6h6.94c3.89,0,7.04,3.15,7.04,7.04v24.21c-4.66-2.69-14.07-8.12-13.97-15.89,0-8.42,.03-2.98,0-15.36Z" />
		<polygon class="cls-2" points="33.6 49.6 47.57 49.6 47.57 80.84 70.86 94.62 70.86 133.43 56.89 133.43 56.89 102.38 33.6 88.92 33.6 49.6" />
		<polygon class="cls-2" points="33.6 105 47.57 113.27 47.57 133.43 33.6 133.43 33.6 105" />
	</g>
	<g>
		<path class="cls-2" d="M110.4,133.43h-6.94s0-44.69,0-44.69c4.66,2.69,14.07,8.12,13.97,15.89,0,6.71-.02,13.16-.01,21.77,0,3.88-3.14,7.03-7.02,7.03Z" />
		<rect class="cls-2" x="80.17" y="49.6" width="13.97" height="83.83" />
		<path class="cls-2" d="M103.46,49.6h6.91c3.9,0,7.06,3.16,7.06,7.06v24.62l-13.97-8.07v-23.62Z" />
	</g>
	<text class="cls-1" transform="translate(8.61 58.15) rotate(-60.61) scale(.99 1)">
		<tspan x="0" y="0">
			a
		</tspan>
	</text>
	<text class="cls-1" transform="translate(11.14 53.7) rotate(-57.2) scale(.99 1)">
		<tspan x="0" y="0">
			r
		</tspan>
	</text>
	<text class="cls-1" transform="translate(12.92 50.9) rotate(-54.06) scale(.99 1)">
		<tspan x="0" y="0">
			c
		</tspan>
	</text>
	<text class="cls-1" transform="translate(15.68 47.06) rotate(-49.88) scale(.99 1)">
		<tspan x="0" y="0">
			h
		</tspan>
	</text>
	<text class="cls-1" transform="translate(19.51 42.57) rotate(-46.61) scale(.99 1)">
		<tspan x="0" y="0">
			i
		</tspan>
	</text>
	<text class="cls-1" transform="translate(21.19 40.78) rotate(-44.29) scale(.99 1)">
		<tspan x="0" y="0">
			t
		</tspan>
	</text>
	<text class="cls-1" transform="translate(23.61 38.38) rotate(-40.92) scale(.99 1)">
		<tspan x="0" y="0">
			e
		</tspan>
	</text>
	<text class="cls-1" transform="translate(27.62 34.91) rotate(-36.95) scale(.99 1)">
		<tspan x="0" y="0">
			k
		</tspan>
	</text>
	<text class="cls-1" transform="translate(31.6 31.94) rotate(-33.68) scale(.99 1)">
		<tspan x="0" y="0">
			t
		</tspan>
	</text>
	<text class="cls-1" transform="translate(34.45 29.99) rotate(-30.1) scale(.99 1)">
		<tspan x="0" y="0">
			u
		</tspan>
	</text>
	<text class="cls-1" transform="translate(39.54 27.08) rotate(-26.51) scale(.99 1)">
		<tspan x="0" y="0">
			r
		</tspan>
	</text>
	<text class="cls-1" transform="translate(42.54 25.55) rotate(-23.28) scale(.99 1)">
		<tspan x="0" y="0">
			a
		</tspan>
	</text>
	<text class="cls-1" transform="translate(47.27 23.55) rotate(-20.44) scale(.99 1)">
		<tspan x="0" y="0">
		</tspan>
	</text>
	<text class="cls-1" transform="translate(49.37 22.77) rotate(-18.71) scale(.99 1)">
		<tspan x="0" y="0">
		</tspan>
	</text>
	<text class="cls-1" transform="translate(51.48 22.05) rotate(-16.88) scale(.99 1)">
		<tspan x="0" y="0">
			|
		</tspan>
	</text>
	<text class="cls-1" transform="translate(53.88 21.32) rotate(-15.05) scale(.99 1)">
		<tspan x="0" y="0">
		</tspan>
	</text>
	<text class="cls-1" transform="translate(56.06 20.74) rotate(-13.32) scale(.99 1)">
		<tspan x="0" y="0">
		</tspan>
	</text>
	<text class="cls-1" transform="translate(58.2 20.17) rotate(-10.13) scale(.99 1)">
		<tspan x="0" y="0">
			p
		</tspan>
	</text>
	<text class="cls-1" transform="translate(64.12 19.15) rotate(-6.5) scale(.99 1)">
		<tspan x="0" y="0">
			r
		</tspan>
	</text>
	<text class="cls-1" transform="translate(67.42 18.73) rotate(-3.03) scale(.99 1)">
		<tspan x="0" y="0">
			o
		</tspan>
	</text>
	<text class="cls-1" transform="translate(73.25 18.47) rotate(.16) scale(.99 1)">
		<tspan x="0" y="0">
			j
		</tspan>
	</text>
	<text class="cls-1" transform="translate(75.79 18.44) rotate(3.15) scale(.99 1)">
		<tspan x="0" y="0">
			e
		</tspan>
	</text>
	<text class="cls-1" transform="translate(81.06 18.75) rotate(6.43) scale(.99 1)">
		<tspan x="0" y="0">
			k
		</tspan>
	</text>
	<text class="cls-1" transform="translate(86.01 19.35) rotate(10.16) scale(.99 1)">
		<tspan x="0" y="0">
			t
		</tspan>
	</text>
	<text class="cls-1" transform="translate(89.38 19.92) rotate(13.64) scale(.99 1)">
		<tspan x="0" y="0">
			o
		</tspan>
	</text>
	<text class="cls-1" transform="translate(94.94 21.21) rotate(18.76) scale(.99 1)">
		<tspan x="0" y="0">
			w
		</tspan>
	</text>
	<text class="cls-1" transform="translate(102.27 23.75) rotate(23.68) scale(.99 1)">
		<tspan x="0" y="0">
			a
		</tspan>
	</text>
	<text class="cls-1" transform="translate(106.93 25.77) rotate(27.9) scale(.99 1)">
		<tspan x="0" y="0">
			n
		</tspan>
	</text>
	<text class="cls-1" transform="translate(112.13 28.58) rotate(31.11) scale(.99 1)">
		<tspan x="0" y="0">
			i
		</tspan>
	</text>
	<text class="cls-1" transform="translate(114.23 29.79) rotate(34.1) scale(.99 1)">
		<tspan x="0" y="0">
			e
		</tspan>
	</text>
	<text class="cls-1" transform="translate(118.62 32.81) rotate(37) scale(.99 1)">
		<tspan x="0" y="0">
		</tspan>
	</text>
	<text class="cls-1" transform="translate(120.42 34.04) rotate(40.86) scale(.99 1)">
		<tspan x="0" y="0">
			w
		</tspan>
	</text>
	<text class="cls-1" transform="translate(126.29 39.17) rotate(46.11) scale(.99 1)">
		<tspan x="0" y="0">
			n
		</tspan>
	</text>
	<text class="cls-1" transform="translate(130.34 43.4) rotate(50.33) scale(.99 1)">
		<tspan x="0" y="0">
			ą
		</tspan>
	</text>
	<text class="cls-1" transform="translate(133.58 47.33) rotate(53.64) scale(.99 1)">
		<tspan x="0" y="0">
			t
		</tspan>
	</text>
	<text class="cls-1" transform="translate(135.65 50.15) rotate(56.34) scale(.99 1)">
		<tspan x="0" y="0">
			r
		</tspan>
	</text>
	<text class="cls-1" transform="translate(137.62 53.08) rotate(59.52) scale(.99 1)">
		<tspan x="0" y="0">
			z
		</tspan>
	</text>
</svg>
